<svg version="1.1" viewBox="0.0 0.0 512.0 512.0" fill="none" stroke="none" stroke-linecap="square" stroke-miterlimit="10" xmlns:xlink="http://www.w3.org/1999/xlink" xmlns="http://www.w3.org/2000/svg"><clipPath id="g3f2fc1d9422_0_7.0"><path d="m0 0l512.0 0l0 512.0l-512.0 0l0 -512.0z" clip-rule="nonzero"/></clipPath><g clip-path="url(#g3f2fc1d9422_0_7.0)"><path fill="#ffffff" d="m0 0l512.0 0l0 512.0l-512.0 0z" fill-rule="evenodd"/><path fill="#fa7305" d="m-0.002624672 256.00262c0 -141.38489 114.615105 -256.0 256.0 -256.0c67.89542 0 133.01001 26.971352 181.01935 74.98067c48.009308 48.009308 74.98065 113.12392 74.98065 181.01933c0 141.38489 -114.61511 256.0 -256.0 256.0c-141.38489 0 -256.0 -114.61511 -256.0 -256.0z" fill-rule="evenodd"/><path fill="#000000" fill-opacity="0.0" d="m-35.03608 98.53571l0 314.92914l342.55118 0l0 -314.92914z" fill-rule="evenodd"/><path fill="#ffffff" d="m247.41765 255.99905q0 30.21875 -11.296875 51.1875q-11.296875 20.96875 -32.125 31.828125q-20.828125 10.84375 -49.28125 10.84375l-126.99999 0l0 -48.09375l128.76562 0q14.078125 0 24.5 -5.421875q10.40625 -5.4375 15.984375 -15.546875q5.5625 -10.125 5.5625 -24.796875q0 -14.953125 -5.5625 -25.078125q-5.578125 -10.125 -15.84375 -15.40625q-10.265625 -5.28125 -24.640625 -5.28125l-128.76562 0l0 -48.09375l126.99999 0q28.453125 0 49.28125 10.859375q20.828125 10.84375 32.125 31.671875q11.296875 20.828125 11.296875 51.328125z" fill-rule="nonzero"/><path fill="#000000" fill-opacity="0.0" d="m546.8968 413.46484l0 -314.92914l-342.5512 0l0 314.92914z" fill-rule="evenodd"/><path fill="#ffffff" d="m264.44305 256.0015q0 -30.21875 11.296875 -51.1875q11.296875 -20.96875 32.125 -31.828125q20.828125 -10.84375 49.28125 -10.84375l127.0 0l0 48.09375l-128.76562 0q-14.078125 0 -24.5 5.421875q-10.40625 5.4375 -15.984375 15.546875q-5.5625 10.125 -5.5625 24.796875q0 14.953125 5.5625 25.078125q5.578125 10.125 15.84375 15.40625q10.265625 5.28125 24.640625 5.28125l128.76562 0l0 48.09375l-127.0 0q-28.453125 0 -49.28125 -10.859375q-20.828125 -10.84375 -32.125 -31.671875q-11.296875 -20.828125 -11.296875 -51.328125z" fill-rule="nonzero"/><path fill="#000000" fill-opacity="0.0" d="m255.99652 98.53571l0 314.92914" fill-rule="evenodd"/><path stroke="#072684" stroke-width="4.0" stroke-linejoin="round" stroke-linecap="butt" d="m255.99652 98.53571l0 314.92914" fill-rule="evenodd"/></g></svg>